<svg width="53" height="33" xmlns="http://www.w3.org/2000/svg">
 <g>
  <title>Logo</title>
  <path fill="#93a1d6" id="svg_1" d="m49.737352,26.890999a7.8,7.8 0 0 0 -3.87,-2.954l0,-3.822a13,13 0 0 0 -12.9,-12.942l-5.15,0l0,-3.958l3.67,0a1.358,1.358 0 0 0 0,-2.714l-10.09,0a1.357,1.357 0 0 0 0,2.714l3.71,0l0,3.958l-5.2,0a12.558,12.558 0 0 0 -4.3,0.8a12.9,12.9 0 0 0 -8.43,12.139l0,3.856a6.934,6.934 0 0 0 -3.85,2.92l-2.24,3.494a1.385,1.385 0 0 0 -0.05,1.391a1.343,1.343 0 0 0 1.15,0.726l30.55,0a1.358,1.358 0 0 0 0,-2.714l-28.14,0l0.92,-1.479a4.922,4.922 0 0 1 4.16,-2.14l2.56,0a1.3,1.3 0 1 0 0,-2.6l-2.46,0l0,-3.453a10.223,10.223 0 0 1 6.7,-9.61a10.076,10.076 0 0 1 3.43,-0.618l13.06,0a10.241,10.241 0 0 1 10.19,10.228l0,3.453l-22.71,0a1.3,1.3 0 1 0 0,2.6l22.85,0a4.928,4.928 0 0 1 4.17,2.14l0.92,1.479l-7.09,0a1.357,1.357 0 0 0 0,2.714l9.5,0a1.4,1.4 0 0 0 1.14,-2.1l-2.2,-3.508zm-29.68,-10.192a7.105,7.105 0 0 0 -4.31,4.357a0.859,0.859 0 0 0 0.53,1.082a0.85,0.85 0 0 0 1.08,-0.529a5.353,5.353 0 0 1 3.27,-3.305a0.852,0.852 0 1 0 -2.77,-5.117l2.2,3.512z"/>
 </g>
</svg>