
<svg width="64px" height="47px" viewBox="0 0 64 47" version="1.1" xmlns="http://www.w3.org/2000/svg" xmlns:xlink="http://www.w3.org/1999/xlink">
    <!-- Generator: Sketch 51.3 (57544) - http://www.bohemiancoding.com/sketch -->
    <desc>Created with Sketch.</desc>
    <defs></defs>
    <g id="Symbols" stroke="none" stroke-width="1" fill="none" fill-rule="evenodd">
        <g id="MENU" transform="translate(-151.000000, -88.000000)" fill="#424242">
            <g transform="translate(0.000000, -0.500000)" id="Logo">
                <g transform="translate(151.000000, 89.000000)">
                    <path d="M16.7612305,46 L16.0141602,46 L16.0141602,42.9765625 L12.6303711,42.9765625 L12.6303711,46 L11.8833008,46 L11.8833008,39.5751953 L12.6303711,39.5751953 L12.6303711,42.3085938 L16.0141602,42.3085938 L16.0141602,39.5751953 L16.7612305,39.5751953 L16.7612305,46 Z M25.7000977,42.7788086 C25.7000977,43.807134 25.4400905,44.6157197 24.9200684,45.2045898 C24.4000463,45.79346 23.6771531,46.0878906 22.7513672,46.0878906 C21.8050734,46.0878906 21.0748561,45.7985869 20.5606934,45.2199707 C20.0465307,44.6413545 19.7894531,43.8247123 19.7894531,42.7700195 C19.7894531,41.7241159 20.0472631,40.913333 20.5628906,40.3376465 C21.0785182,39.76196 21.8109328,39.4741211 22.7601563,39.4741211 C23.6830125,39.4741211 24.4037084,39.7670869 24.9222656,40.3530273 C25.4408229,40.9389678 25.7000977,41.7475534 25.7000977,42.7788086 Z M20.5804688,42.7788086 C20.5804688,43.6489301 20.7657697,44.3088356 21.136377,44.7585449 C21.5069843,45.2082542 22.045309,45.4331055 22.7513672,45.4331055 C23.4632848,45.4331055 24.0008771,45.2089866 24.3641602,44.7607422 C24.7274432,44.3124978 24.9090821,43.6518598 24.9090821,42.7788086 C24.9090821,41.9145465 24.7281757,41.2590354 24.3663574,40.8122559 C24.0045392,40.3654763 23.4691442,40.1420898 22.7601563,40.1420898 C22.0482387,40.1420898 21.5069843,40.3669411 21.136377,40.8166504 C20.7657697,41.2663597 20.5804688,41.9204059 20.5804688,42.7788086 Z M32.3582032,44.2905273 C32.3582032,44.8559599 32.1531271,45.2968734 31.7429688,45.6132812 C31.3328105,45.9296891 30.7761754,46.0878906 30.0730469,46.0878906 C29.3113244,46.0878906 28.7253927,45.9897471 28.3152344,45.793457 L28.3152344,45.0727539 C28.5789076,45.1840826 28.8660141,45.2719723 29.1765625,45.3364258 C29.487111,45.4008792 29.7947251,45.4331055 30.0994141,45.4331055 C30.5974635,45.4331055 30.9724597,45.338624 31.2244141,45.1496582 C31.4763685,44.9606924 31.6023438,44.6977556 31.6023438,44.3608398 C31.6023438,44.1381825 31.5576665,43.9558113 31.4683106,43.8137207 C31.3789547,43.6716301 31.2295421,43.5405279 31.0200684,43.4204102 C30.8105947,43.3002924 30.4919944,43.1640633 30.0642579,43.0117188 C29.4665986,42.7978505 29.0396009,42.5444351 28.783252,42.2514648 C28.5269031,41.9584946 28.3987305,41.5761742 28.3987305,41.1044922 C28.3987305,40.6093725 28.5847638,40.2153335 28.956836,39.9223633 C29.3289082,39.6293931 29.8210907,39.4829102 30.4333985,39.4829102 C31.0720736,39.4829102 31.65947,39.6000965 32.1956055,39.8344727 L31.9626954,40.4848633 C31.4324193,40.2622059 30.9167994,40.1508789 30.4158204,40.1508789 C30.0203106,40.1508789 29.7112316,40.235839 29.4885743,40.4057617 C29.2659169,40.5756844 29.1545899,40.8115219 29.1545899,41.1132812 C29.1545899,41.3359386 29.1956051,41.5183098 29.2776368,41.6604004 C29.3596684,41.8024909 29.4980948,41.9328607 29.69292,42.0515137 C29.8877452,42.1701666 30.1858379,42.3012688 30.5872071,42.4448242 C31.2610386,42.6850598 31.724657,42.9428697 31.9780762,43.2182617 C32.2314955,43.4936537 32.3582032,43.851072 32.3582032,44.2905273 Z M37.2497071,46 L36.5026368,46 L36.5026368,40.2387695 L34.4679688,40.2387695 L34.4679688,39.5751953 L39.2843751,39.5751953 L39.2843751,40.2387695 L37.2497071,40.2387695 L37.2497071,46 Z M45.4327149,46 L41.851172,46 L41.851172,39.5751953 L45.4327149,39.5751953 L45.4327149,40.2387695 L42.5982423,40.2387695 L42.5982423,42.3085938 L45.2613282,42.3085938 L45.2613282,42.9677734 L42.5982423,42.9677734 L42.5982423,45.3320312 L45.4327149,45.3320312 L45.4327149,46 Z M48.4565431,46 L48.4565431,39.5751953 L49.2036134,39.5751953 L49.2036134,45.3232422 L52.0380861,45.3232422 L52.0380861,46 L48.4565431,46 Z" id="hostel"></path>
                    <path d="M3.43,25.75 C5.68,25.165 9.145,24.4 11.395,24.22 C13.555,24.04 14.815,24.85 15.355,26.155 C15.535,26.56 15.49,26.83 14.905,26.83 C12.07,26.83 7.435,27.82 4.285,28.675 C3.115,28.99 2.53,29.08 2.035,28.27 C1.72,27.775 1.135,26.92 0.955,26.425 C0.595,25.525 0.46,25.075 1.18,23.995 C4.915,18.505 15.985,7.795 22.645,3.25 C20.62,3.565 17.47,4.33 15.58,4.555 C12.61,4.87 11.305,3.745 10.81,2.26 C10.675,1.855 10.81,1.585 11.305,1.585 C14.635,1.675 19.27,0.55 21.745,0.37 C22.69,0.28 23.275,0.37 23.86,1.135 C24.49,1.945 24.985,3.025 25.345,4.06 C25.66,4.96 25.39,5.365 24.31,6.13 C17.65,10.9 8.83,19.36 3.43,25.75 Z M29.935,7.345 C30.52,8.515 30.205,9.73 29.62,10.36 C29.035,10.99 27.775,10.855 27.1,9.685 C26.38,8.47 26.605,7.12 27.325,6.355 C28.045,5.59 29.35,6.13 29.935,7.345 Z M22.6,28.675 C19.18,28.675 18.325,25.795 19.585,22.105 C20.71,18.82 23.68,13.51 25.345,11.17 C25.75,10.63 26.065,10.495 26.425,10.9 C27.1,11.62 27.46,13.555 26.38,15.805 C25.435,17.785 23.545,20.845 22.6,23.095 C21.52,25.705 21.61,27.46 23.05,27.37 C25.075,27.28 27.55,24.31 28.9,21.205 C29.125,20.8 29.44,20.845 29.62,21.205 C29.98,21.925 29.845,22.87 29.305,23.995 C27.955,26.785 25.12,28.675 22.6,28.675 Z M63.145,23.995 C61.93,26.515 59.185,28.765 56.53,28.765 C52.795,28.765 51.85,25.975 53.155,22.15 C54.685,17.74 58.6,12.97 57.835,12.7 C57.295,12.52 54.775,13.69 51.895,16.84 C49.285,19.675 47.17,23.995 45.325,28.225 C45.19,28.54 44.875,28.81 44.47,28.36 C43.66,27.46 43.345,26.02 44.11,23.77 C44.605,22.375 45.595,20.035 46.945,17.65 C45.73,18.46 44.335,18.865 42.76,18.775 C41.86,22.6 38.98,27.235 35.65,28.315 C34.03,28.855 31.735,28.81 29.98,26.425 C28,23.77 28.675,19.81 30.7,16.3 C32.455,13.24 35.155,10.675 37.855,10.45 C39.205,10.315 39.97,10.72 40.87,11.935 C41.95,13.375 43.3,13.645 43.03,16.885 C43.03,17.11 43.03,17.425 42.985,17.695 C45.82,17.65 48.745,14.365 51.175,10.675 C51.49,10.18 51.85,10.18 52.12,10.585 C52.795,11.71 52.795,13.24 52.3,14.815 C54.325,12.7 57.295,10.27 58.825,10.45 C60.31,10.63 61.705,12.925 60.58,15.22 C59.59,17.245 57.475,20.485 56.395,22.825 C55.225,25.39 55.45,27.415 57.16,27.37 C58.96,27.325 61.075,24.4 62.83,21.16 C63.01,20.8 63.46,20.8 63.595,21.16 C63.82,21.7 63.82,22.6 63.145,23.995 Z M40.15,16.885 C40.42,15.625 40.555,14.545 40.42,13.735 C40.195,12.295 39.25,12.565 39.07,13.87 C38.935,14.86 39.25,16.165 40.15,16.885 Z M39.835,18.1 C38.26,17.245 36.955,15.49 36.91,13.735 C35.65,14.77 34.39,16.345 33.4,18.01 C31.42,21.385 30.79,25.57 32.005,26.56 C33.22,27.55 36.01,25.975 38.17,21.925 C38.935,20.485 39.475,19.225 39.835,18.1 Z" id="Zion"></path>
                </g>
            </g>
        </g>
    </g>
</svg>
